<svg width="24" height="24" viewBox="0 0 24 24" fill="none" xmlns="http://www.w3.org/2000/svg"><path opacity="0.3" d="M2 6C2 4.89543 2.89543 4 4 4H10C11.1046 4 12 4.89543 12 6V20C12 21.1046 11.1046 22 10 22H4C2.89543 22 2 21.1046 2 20V6Z" stroke="currentColor" stroke-width="2" stroke-linejoin="round"/><path opacity="0.3" d="M22 6C22 4.89543 21.1046 4 20 4H14C12.8954 4 12 4.89543 12 6V20C12 21.1046 12.8954 22 14 22H20C21.1046 22 22 21.1046 22 20V6Z" stroke="currentColor" stroke-width="2" stroke-linejoin="round"/><path d="M7 13H17" stroke="currentColor" stroke-width="2" stroke-linecap="round" stroke-linejoin="round"/><path d="M14 10L17 13L14 16" stroke="currentColor" stroke-width="2" stroke-linecap="round" stroke-linejoin="round"/></svg>
